<?xml version="1.0" encoding="utf-8"?>
<!-- Generator: Adobe Illustrator 14.0.0, SVG Export Plug-In . SVG Version: 6.00 Build 43363)  -->
<!DOCTYPE svg PUBLIC "-//W3C//DTD SVG 1.1//EN" "http://www.w3.org/Graphics/SVG/1.1/DTD/svg11.dtd">
<svg version="1.1" id="Calque_1" xmlns="http://www.w3.org/2000/svg" xmlns:xlink="http://www.w3.org/1999/xlink" x="0px" y="0px"
	 width="294.333px" height="294.361px" viewBox="0 0 294.333 294.361" enable-background="new 0 0 294.333 294.361"
	 xml:space="preserve">
<g>
	<polygon fill="none" stroke="#FFFFFF" stroke-width="5" stroke-linecap="square" stroke-miterlimit="10" points="294.277,147.167 
		292.777,126.222 288.333,105.722 281,86.028 270.944,67.611 258.361,50.806 243.5,35.944 226.722,23.361 208.277,13.306 
		188.611,5.944 168.111,1.5 147.166,0 126.222,1.5 105.722,5.944 86.055,13.306 67.639,23.361 50.833,35.944 36,50.806 
		23.417,67.611 13.361,86.028 6,105.722 1.555,126.222 0.055,147.167 1.555,168.111 6,188.639 13.361,208.306 23.417,226.75 
		36,243.556 50.833,258.417 67.639,271 86.055,281.056 105.722,288.389 126.222,292.861 147.166,294.361 168.111,292.861 
		188.611,288.389 208.277,281.056 226.722,271 243.5,258.417 258.361,243.556 270.944,226.75 281,208.306 288.333,188.639 
		292.777,168.111 294.277,147.167 	"/>
	<polygon fill-rule="evenodd" clip-rule="evenodd" fill="#FFFFFF" points="136.667,0.361 157.666,0.361 157.666,0.361 	"/>
	
		<rect x="136.667" y="0.361" fill="none" stroke="#FFFFFF" stroke-width="5" stroke-linecap="square" stroke-miterlimit="10" width="21" height="0"/>
	<polygon fill-rule="evenodd" clip-rule="evenodd" fill="#FFFFFF" points="136.667,0.361 115.889,3.361 178.444,3.361 	"/>
	<polygon fill="none" stroke="#FFFFFF" stroke-width="5" stroke-linecap="square" stroke-miterlimit="10" points="136.667,0.361 
		115.889,3.361 178.444,3.361 136.667,0.361 	"/>
	<polygon fill-rule="evenodd" clip-rule="evenodd" fill="#FFFFFF" points="136.667,0.361 157.666,0.361 178.444,3.361 	"/>
	<polygon fill="none" stroke="#FFFFFF" stroke-width="5" stroke-linecap="square" stroke-miterlimit="10" points="136.667,0.361 
		157.666,0.361 178.444,3.361 136.667,0.361 	"/>
	<polygon fill-rule="evenodd" clip-rule="evenodd" fill="#FFFFFF" points="115.889,3.361 95.75,9.278 198.583,9.278 	"/>
	<polygon fill="none" stroke="#FFFFFF" stroke-width="5" stroke-linecap="square" stroke-miterlimit="10" points="115.889,3.361 
		95.75,9.278 198.583,9.278 115.889,3.361 	"/>
	<polygon fill-rule="evenodd" clip-rule="evenodd" fill="#FFFFFF" points="115.889,3.361 178.444,3.361 198.583,9.278 	"/>
	<polygon fill="none" stroke="#FFFFFF" stroke-width="5" stroke-linecap="square" stroke-miterlimit="10" points="115.889,3.361 
		178.444,3.361 198.583,9.278 115.889,3.361 	"/>
	<polygon fill-rule="evenodd" clip-rule="evenodd" fill="#FFFFFF" points="95.75,9.278 76.667,18 217.666,18 	"/>
	<polygon fill="none" stroke="#FFFFFF" stroke-width="5" stroke-linecap="square" stroke-miterlimit="10" points="95.75,9.278 
		76.667,18 217.666,18 95.75,9.278 	"/>
	<polygon fill-rule="evenodd" clip-rule="evenodd" fill="#FFFFFF" points="95.75,9.278 198.583,9.278 217.666,18 	"/>
	<polygon fill="none" stroke="#FFFFFF" stroke-width="5" stroke-linecap="square" stroke-miterlimit="10" points="95.75,9.278 
		198.583,9.278 217.666,18 95.75,9.278 	"/>
	<polygon fill-rule="evenodd" clip-rule="evenodd" fill="#FFFFFF" points="76.667,18 59,29.361 235.333,29.361 	"/>
	<polygon fill="none" stroke="#FFFFFF" stroke-width="5" stroke-linecap="square" stroke-miterlimit="10" points="76.667,18 
		59,29.361 235.333,29.361 76.667,18 	"/>
	<polygon fill-rule="evenodd" clip-rule="evenodd" fill="#FFFFFF" points="76.667,18 217.666,18 235.333,29.361 	"/>
	<polygon fill="none" stroke="#FFFFFF" stroke-width="5" stroke-linecap="square" stroke-miterlimit="10" points="76.667,18 
		217.666,18 235.333,29.361 76.667,18 	"/>
	<polygon fill-rule="evenodd" clip-rule="evenodd" fill="#FFFFFF" points="59,29.361 43.139,43.111 251.194,43.111 	"/>
	<polygon fill="none" stroke="#FFFFFF" stroke-width="5" stroke-linecap="square" stroke-miterlimit="10" points="59,29.361 
		43.139,43.111 251.194,43.111 59,29.361 	"/>
	<polygon fill-rule="evenodd" clip-rule="evenodd" fill="#FFFFFF" points="59,29.361 235.333,29.361 251.194,43.111 	"/>
	<polygon fill="none" stroke="#FFFFFF" stroke-width="5" stroke-linecap="square" stroke-miterlimit="10" points="59,29.361 
		235.333,29.361 251.194,43.111 59,29.361 	"/>
	<polygon fill-rule="evenodd" clip-rule="evenodd" fill="#FFFFFF" points="43.139,43.111 29.389,58.972 264.944,58.972 	"/>
	<polygon fill="none" stroke="#FFFFFF" stroke-width="5" stroke-linecap="square" stroke-miterlimit="10" points="43.139,43.111 
		29.389,58.972 264.944,58.972 43.139,43.111 	"/>
	<polygon fill-rule="evenodd" clip-rule="evenodd" fill="#FFFFFF" points="43.139,43.111 251.194,43.111 264.944,58.972 	"/>
	<polygon fill="none" stroke="#FFFFFF" stroke-width="5" stroke-linecap="square" stroke-miterlimit="10" points="43.139,43.111 
		251.194,43.111 264.944,58.972 43.139,43.111 	"/>
	<polygon fill-rule="evenodd" clip-rule="evenodd" fill="#FFFFFF" points="29.389,58.972 18.055,76.639 276.306,76.639 	"/>
	<polygon fill="none" stroke="#FFFFFF" stroke-width="5" stroke-linecap="square" stroke-miterlimit="10" points="29.389,58.972 
		18.055,76.639 276.306,76.639 29.389,58.972 	"/>
	<polygon fill-rule="evenodd" clip-rule="evenodd" fill="#FFFFFF" points="29.389,58.972 264.944,58.972 276.306,76.639 	"/>
	<polygon fill="none" stroke="#FFFFFF" stroke-width="5" stroke-linecap="square" stroke-miterlimit="10" points="29.389,58.972 
		264.944,58.972 276.306,76.639 29.389,58.972 	"/>
	<polygon fill-rule="evenodd" clip-rule="evenodd" fill="#FFFFFF" points="18.055,76.639 9.333,95.75 285,95.75 	"/>
	<polygon fill="none" stroke="#FFFFFF" stroke-width="5" stroke-linecap="square" stroke-miterlimit="10" points="18.055,76.639 
		9.333,95.75 285,95.75 18.055,76.639 	"/>
	<polygon fill-rule="evenodd" clip-rule="evenodd" fill="#FFFFFF" points="18.055,76.639 276.306,76.639 285,95.75 	"/>
	<polygon fill="none" stroke="#FFFFFF" stroke-width="5" stroke-linecap="square" stroke-miterlimit="10" points="18.055,76.639 
		276.306,76.639 285,95.75 18.055,76.639 	"/>
	<polygon fill-rule="evenodd" clip-rule="evenodd" fill="#FFFFFF" points="9.333,95.75 3.417,115.889 290.916,115.889 	"/>
	<polygon fill="none" stroke="#FFFFFF" stroke-width="5" stroke-linecap="square" stroke-miterlimit="10" points="9.333,95.75 
		3.417,115.889 290.916,115.889 9.333,95.75 	"/>
	<polygon fill-rule="evenodd" clip-rule="evenodd" fill="#FFFFFF" points="9.333,95.75 285,95.75 290.916,115.889 	"/>
	<polygon fill="none" stroke="#FFFFFF" stroke-width="5" stroke-linecap="square" stroke-miterlimit="10" points="9.333,95.75 
		285,95.75 290.916,115.889 9.333,95.75 	"/>
	<polygon fill-rule="evenodd" clip-rule="evenodd" fill="#FFFFFF" points="3.417,115.889 0.417,136.667 293.916,136.667 	"/>
	<polygon fill="none" stroke="#FFFFFF" stroke-width="5" stroke-linecap="square" stroke-miterlimit="10" points="3.417,115.889 
		0.417,136.667 293.916,136.667 3.417,115.889 	"/>
	<polygon fill-rule="evenodd" clip-rule="evenodd" fill="#FFFFFF" points="3.417,115.889 290.916,115.889 293.916,136.667 	"/>
	<polygon fill="none" stroke="#FFFFFF" stroke-width="5" stroke-linecap="square" stroke-miterlimit="10" points="3.417,115.889 
		290.916,115.889 293.916,136.667 3.417,115.889 	"/>
	<polygon fill-rule="evenodd" clip-rule="evenodd" fill="#FFFFFF" points="0.417,136.667 0.417,157.667 293.916,157.667 	"/>
	<polygon fill="none" stroke="#FFFFFF" stroke-width="5" stroke-linecap="square" stroke-miterlimit="10" points="0.417,136.667 
		0.417,157.667 293.916,157.667 0.417,136.667 	"/>
	<polygon fill-rule="evenodd" clip-rule="evenodd" fill="#FFFFFF" points="0.417,136.667 293.916,136.667 293.916,157.667 	"/>
	<polygon fill="none" stroke="#FFFFFF" stroke-width="5" stroke-linecap="square" stroke-miterlimit="10" points="0.417,136.667 
		293.916,136.667 293.916,157.667 0.417,136.667 	"/>
	<polygon fill-rule="evenodd" clip-rule="evenodd" fill="#FFFFFF" points="0.417,157.667 3.417,178.473 290.916,178.473 	"/>
	<polygon fill="none" stroke="#FFFFFF" stroke-width="5" stroke-linecap="square" stroke-miterlimit="10" points="0.417,157.667 
		3.417,178.473 290.916,178.473 0.417,157.667 	"/>
	<polygon fill-rule="evenodd" clip-rule="evenodd" fill="#FFFFFF" points="0.417,157.667 293.916,157.667 290.916,178.473 	"/>
	<polygon fill="none" stroke="#FFFFFF" stroke-width="5" stroke-linecap="square" stroke-miterlimit="10" points="0.417,157.667 
		293.916,157.667 290.916,178.473 0.417,157.667 	"/>
	<polygon fill-rule="evenodd" clip-rule="evenodd" fill="#FFFFFF" points="3.417,178.473 9.333,198.611 285,198.611 	"/>
	<polygon fill="none" stroke="#FFFFFF" stroke-width="5" stroke-linecap="square" stroke-miterlimit="10" points="3.417,178.473 
		9.333,198.611 285,198.611 3.417,178.473 	"/>
	<polygon fill-rule="evenodd" clip-rule="evenodd" fill="#FFFFFF" points="3.417,178.473 290.916,178.473 285,198.611 	"/>
	<polygon fill="none" stroke="#FFFFFF" stroke-width="5" stroke-linecap="square" stroke-miterlimit="10" points="3.417,178.473 
		290.916,178.473 285,198.611 3.417,178.473 	"/>
	<polygon fill-rule="evenodd" clip-rule="evenodd" fill="#FFFFFF" points="9.333,198.611 18.055,217.723 276.306,217.723 	"/>
	<polygon fill="none" stroke="#FFFFFF" stroke-width="5" stroke-linecap="square" stroke-miterlimit="10" points="9.333,198.611 
		18.055,217.723 276.306,217.723 9.333,198.611 	"/>
	<polygon fill-rule="evenodd" clip-rule="evenodd" fill="#FFFFFF" points="9.333,198.611 285,198.611 276.306,217.723 	"/>
	<polygon fill="none" stroke="#FFFFFF" stroke-width="5" stroke-linecap="square" stroke-miterlimit="10" points="9.333,198.611 
		285,198.611 276.306,217.723 9.333,198.611 	"/>
	<polygon fill-rule="evenodd" clip-rule="evenodd" fill="#FFFFFF" points="18.055,217.723 29.389,235.389 264.944,235.389 	"/>
	<polygon fill="none" stroke="#FFFFFF" stroke-width="5" stroke-linecap="square" stroke-miterlimit="10" points="18.055,217.723 
		29.389,235.389 264.944,235.389 18.055,217.723 	"/>
	<polygon fill-rule="evenodd" clip-rule="evenodd" fill="#FFFFFF" points="18.055,217.723 276.306,217.723 264.944,235.389 	"/>
	<polygon fill="none" stroke="#FFFFFF" stroke-width="5" stroke-linecap="square" stroke-miterlimit="10" points="18.055,217.723 
		276.306,217.723 264.944,235.389 18.055,217.723 	"/>
	<polygon fill-rule="evenodd" clip-rule="evenodd" fill="#FFFFFF" points="29.389,235.389 43.139,251.25 251.194,251.25 	"/>
	<polygon fill="none" stroke="#FFFFFF" stroke-width="5" stroke-linecap="square" stroke-miterlimit="10" points="29.389,235.389 
		43.139,251.25 251.194,251.25 29.389,235.389 	"/>
	<polygon fill-rule="evenodd" clip-rule="evenodd" fill="#FFFFFF" points="29.389,235.389 264.944,235.389 251.194,251.25 	"/>
	<polygon fill="none" stroke="#FFFFFF" stroke-width="5" stroke-linecap="square" stroke-miterlimit="10" points="29.389,235.389 
		264.944,235.389 251.194,251.25 29.389,235.389 	"/>
	<polygon fill-rule="evenodd" clip-rule="evenodd" fill="#FFFFFF" points="43.139,251.25 59,265 235.333,265 	"/>
	<polygon fill="none" stroke="#FFFFFF" stroke-width="5" stroke-linecap="square" stroke-miterlimit="10" points="43.139,251.25 
		59,265 235.333,265 43.139,251.25 	"/>
	<polygon fill-rule="evenodd" clip-rule="evenodd" fill="#FFFFFF" points="43.139,251.25 251.194,251.25 235.333,265 	"/>
	<polygon fill="none" stroke="#FFFFFF" stroke-width="5" stroke-linecap="square" stroke-miterlimit="10" points="43.139,251.25 
		251.194,251.25 235.333,265 43.139,251.25 	"/>
	<polygon fill-rule="evenodd" clip-rule="evenodd" fill="#FFFFFF" points="59,265 76.667,276.361 217.666,276.361 	"/>
	<polygon fill="none" stroke="#FFFFFF" stroke-width="5" stroke-linecap="square" stroke-miterlimit="10" points="59,265 
		76.667,276.361 217.666,276.361 59,265 	"/>
	<polygon fill-rule="evenodd" clip-rule="evenodd" fill="#FFFFFF" points="59,265 235.333,265 217.666,276.361 	"/>
	<polygon fill="none" stroke="#FFFFFF" stroke-width="5" stroke-linecap="square" stroke-miterlimit="10" points="59,265 
		235.333,265 217.666,276.361 59,265 	"/>
	<polygon fill-rule="evenodd" clip-rule="evenodd" fill="#FFFFFF" points="76.667,276.361 95.75,285.083 198.583,285.083 	"/>
	<polygon fill="none" stroke="#FFFFFF" stroke-width="5" stroke-linecap="square" stroke-miterlimit="10" points="76.667,276.361 
		95.75,285.083 198.583,285.083 76.667,276.361 	"/>
	<polygon fill-rule="evenodd" clip-rule="evenodd" fill="#FFFFFF" points="76.667,276.361 217.666,276.361 198.583,285.083 	"/>
	<polygon fill="none" stroke="#FFFFFF" stroke-width="5" stroke-linecap="square" stroke-miterlimit="10" points="76.667,276.361 
		217.666,276.361 198.583,285.083 76.667,276.361 	"/>
	<polygon fill-rule="evenodd" clip-rule="evenodd" fill="#FFFFFF" points="95.75,285.083 115.889,291 178.444,291 	"/>
	<polygon fill="none" stroke="#FFFFFF" stroke-width="5" stroke-linecap="square" stroke-miterlimit="10" points="95.75,285.083 
		115.889,291 178.444,291 95.75,285.083 	"/>
	<polygon fill-rule="evenodd" clip-rule="evenodd" fill="#FFFFFF" points="95.75,285.083 198.583,285.083 178.444,291 	"/>
	<polygon fill="none" stroke="#FFFFFF" stroke-width="5" stroke-linecap="square" stroke-miterlimit="10" points="95.75,285.083 
		198.583,285.083 178.444,291 95.75,285.083 	"/>
	<polygon fill-rule="evenodd" clip-rule="evenodd" fill="#FFFFFF" points="115.889,291 136.667,293.973 157.666,293.973 	"/>
	<polygon fill="none" stroke="#FFFFFF" stroke-width="5" stroke-linecap="square" stroke-miterlimit="10" points="115.889,291 
		136.667,293.973 157.666,293.973 115.889,291 	"/>
	<polygon fill-rule="evenodd" clip-rule="evenodd" fill="#FFFFFF" points="115.889,291 178.444,291 157.666,293.973 	"/>
	<polygon fill="none" stroke="#FFFFFF" stroke-width="5" stroke-linecap="square" stroke-miterlimit="10" points="115.889,291 
		178.444,291 157.666,293.973 115.889,291 	"/>
	<polygon fill-rule="evenodd" clip-rule="evenodd" fill="#FFFFFF" points="136.667,293.973 157.666,293.973 157.666,293.973 	"/>
	
		<rect x="136.667" y="293.973" fill="none" stroke="#FFFFFF" stroke-width="5" stroke-linecap="square" stroke-miterlimit="10" width="21" height="0"/>
	<polyline fill="none" stroke="#000000" stroke-width="5" stroke-linecap="square" stroke-miterlimit="10" points="143.639,294.361 
		164.916,293.333 185.833,289.223 205.944,282.139 224.833,272.223 242.083,259.694 257.333,244.806 270.277,227.861 
		280.639,209.223 288.194,189.278 292.777,168.444 294.333,147.167 292.777,125.917 288.194,105.083 280.639,85.139 270.277,66.5 
		257.333,49.556 242.083,34.667 224.833,22.111 205.944,12.194 185.833,5.139 164.916,1.028 143.639,0 	"/>
	<polyline fill="none" stroke="#000000" stroke-width="5" stroke-linecap="square" stroke-miterlimit="10" points="143.639,0 
		123.055,1.944 102.944,6.75 83.694,14.361 65.722,24.556 49.361,37.194 34.917,52 22.667,68.667 12.917,86.889 5.805,106.306 
		1.472,126.556 0,147.167 1.472,167.806 5.805,188.028 12.917,207.444 22.667,225.694 34.917,242.361 49.361,257.167 
		65.722,269.806 83.694,280 102.944,287.583 123.055,292.417 143.639,294.361 	"/>
	
		<line fill="none" stroke="#000000" stroke-width="5" stroke-linecap="square" stroke-miterlimit="10" x1="251.222" y1="43.083" x2="43.111" y2="251.278"/>
	
		<line fill="none" stroke="#000000" stroke-width="5" stroke-linecap="square" stroke-miterlimit="10" x1="43.111" y1="43.083" x2="251.222" y2="251.278"/>
	<polygon fill-rule="evenodd" clip-rule="evenodd" fill="#333333" points="136.667,0.361 157.666,0.361 157.666,0.361 	"/>
	
		<rect x="136.667" y="0.361" fill="none" stroke="#333333" stroke-width="5" stroke-linecap="square" stroke-miterlimit="10" width="21" height="0"/>
	<polygon fill-rule="evenodd" clip-rule="evenodd" fill="#333333" points="136.667,0.361 115.889,3.361 178.444,3.361 	"/>
	<polygon fill="none" stroke="#333333" stroke-width="5" stroke-linecap="square" stroke-miterlimit="10" points="136.667,0.361 
		115.889,3.361 178.444,3.361 136.667,0.361 	"/>
	<polygon fill-rule="evenodd" clip-rule="evenodd" fill="#333333" points="136.667,0.361 157.666,0.361 178.444,3.361 	"/>
	<polygon fill="none" stroke="#333333" stroke-width="5" stroke-linecap="square" stroke-miterlimit="10" points="136.667,0.361 
		157.666,0.361 178.444,3.361 136.667,0.361 	"/>
	<polygon fill-rule="evenodd" clip-rule="evenodd" fill="#333333" points="115.889,3.361 95.75,9.278 198.583,9.278 	"/>
	<polygon fill="none" stroke="#333333" stroke-width="5" stroke-linecap="square" stroke-miterlimit="10" points="115.889,3.361 
		95.75,9.278 198.583,9.278 115.889,3.361 	"/>
	<polygon fill-rule="evenodd" clip-rule="evenodd" fill="#333333" points="115.889,3.361 178.444,3.361 198.583,9.278 	"/>
	<polygon fill="none" stroke="#333333" stroke-width="5" stroke-linecap="square" stroke-miterlimit="10" points="115.889,3.361 
		178.444,3.361 198.583,9.278 115.889,3.361 	"/>
	<polygon fill-rule="evenodd" clip-rule="evenodd" fill="#333333" points="95.75,9.278 76.667,18 217.666,18 	"/>
	<polygon fill="none" stroke="#333333" stroke-width="5" stroke-linecap="square" stroke-miterlimit="10" points="95.75,9.278 
		76.667,18 217.666,18 95.75,9.278 	"/>
	<polygon fill-rule="evenodd" clip-rule="evenodd" fill="#333333" points="95.75,9.278 198.583,9.278 217.666,18 	"/>
	<polygon fill="none" stroke="#333333" stroke-width="5" stroke-linecap="square" stroke-miterlimit="10" points="95.75,9.278 
		198.583,9.278 217.666,18 95.75,9.278 	"/>
	<polygon fill-rule="evenodd" clip-rule="evenodd" fill="#333333" points="76.667,18 59,29.361 235.333,29.361 	"/>
	<polygon fill="none" stroke="#333333" stroke-width="5" stroke-linecap="square" stroke-miterlimit="10" points="76.667,18 
		59,29.361 235.333,29.361 76.667,18 	"/>
	<polygon fill-rule="evenodd" clip-rule="evenodd" fill="#333333" points="76.667,18 217.666,18 235.333,29.361 	"/>
	<polygon fill="none" stroke="#333333" stroke-width="5" stroke-linecap="square" stroke-miterlimit="10" points="76.667,18 
		217.666,18 235.333,29.361 76.667,18 	"/>
	<polygon fill-rule="evenodd" clip-rule="evenodd" fill="#333333" points="59,29.361 43.139,43.111 251.194,43.111 	"/>
	<polygon fill="none" stroke="#333333" stroke-width="5" stroke-linecap="square" stroke-miterlimit="10" points="59,29.361 
		43.139,43.111 251.194,43.111 59,29.361 	"/>
	<polygon fill-rule="evenodd" clip-rule="evenodd" fill="#333333" points="59,29.361 235.333,29.361 251.194,43.111 	"/>
	<polygon fill="none" stroke="#333333" stroke-width="5" stroke-linecap="square" stroke-miterlimit="10" points="59,29.361 
		235.333,29.361 251.194,43.111 59,29.361 	"/>
	<polygon fill-rule="evenodd" clip-rule="evenodd" fill="#333333" points="43.139,43.111 251.194,43.111 147.166,147.167 	"/>
	<polygon fill="none" stroke="#333333" stroke-width="5" stroke-linecap="square" stroke-miterlimit="10" points="43.139,43.111 
		251.194,43.111 147.166,147.167 43.139,43.111 	"/>
	<polygon fill-rule="evenodd" clip-rule="evenodd" fill="#333333" points="147.166,147.167 43.139,251.25 251.194,251.25 	"/>
	<polygon fill="none" stroke="#333333" stroke-width="5" stroke-linecap="square" stroke-miterlimit="10" points="147.166,147.167 
		43.139,251.25 251.194,251.25 147.166,147.167 	"/>
	<polygon fill-rule="evenodd" clip-rule="evenodd" fill="#333333" points="43.139,251.25 59,265 235.333,265 	"/>
	<polygon fill="none" stroke="#333333" stroke-width="5" stroke-linecap="square" stroke-miterlimit="10" points="43.139,251.25 
		59,265 235.333,265 43.139,251.25 	"/>
	<polygon fill-rule="evenodd" clip-rule="evenodd" fill="#333333" points="43.139,251.25 251.194,251.25 235.333,265 	"/>
	<polygon fill="none" stroke="#333333" stroke-width="5" stroke-linecap="square" stroke-miterlimit="10" points="43.139,251.25 
		251.194,251.25 235.333,265 43.139,251.25 	"/>
	<polygon fill-rule="evenodd" clip-rule="evenodd" fill="#333333" points="59,265 76.667,276.361 217.666,276.361 	"/>
	<polygon fill="none" stroke="#333333" stroke-width="5" stroke-linecap="square" stroke-miterlimit="10" points="59,265 
		76.667,276.361 217.666,276.361 59,265 	"/>
	<polygon fill-rule="evenodd" clip-rule="evenodd" fill="#333333" points="59,265 235.333,265 217.666,276.361 	"/>
	<polygon fill="none" stroke="#333333" stroke-width="5" stroke-linecap="square" stroke-miterlimit="10" points="59,265 
		235.333,265 217.666,276.361 59,265 	"/>
	<polygon fill-rule="evenodd" clip-rule="evenodd" fill="#333333" points="76.667,276.361 95.75,285.083 198.583,285.083 	"/>
	<polygon fill="none" stroke="#333333" stroke-width="5" stroke-linecap="square" stroke-miterlimit="10" points="76.667,276.361 
		95.75,285.083 198.583,285.083 76.667,276.361 	"/>
	<polygon fill-rule="evenodd" clip-rule="evenodd" fill="#333333" points="76.667,276.361 217.666,276.361 198.583,285.083 	"/>
	<polygon fill="none" stroke="#333333" stroke-width="5" stroke-linecap="square" stroke-miterlimit="10" points="76.667,276.361 
		217.666,276.361 198.583,285.083 76.667,276.361 	"/>
	<polygon fill-rule="evenodd" clip-rule="evenodd" fill="#333333" points="95.75,285.083 115.889,291 178.444,291 	"/>
	<polygon fill="none" stroke="#333333" stroke-width="5" stroke-linecap="square" stroke-miterlimit="10" points="95.75,285.083 
		115.889,291 178.444,291 95.75,285.083 	"/>
	<polygon fill-rule="evenodd" clip-rule="evenodd" fill="#333333" points="95.75,285.083 198.583,285.083 178.444,291 	"/>
	<polygon fill="none" stroke="#333333" stroke-width="5" stroke-linecap="square" stroke-miterlimit="10" points="95.75,285.083 
		198.583,285.083 178.444,291 95.75,285.083 	"/>
	<polygon fill-rule="evenodd" clip-rule="evenodd" fill="#333333" points="115.889,291 136.667,293.973 157.666,293.973 	"/>
	<polygon fill="none" stroke="#333333" stroke-width="5" stroke-linecap="square" stroke-miterlimit="10" points="115.889,291 
		136.667,293.973 157.666,293.973 115.889,291 	"/>
	<polygon fill-rule="evenodd" clip-rule="evenodd" fill="#333333" points="115.889,291 178.444,291 157.666,293.973 	"/>
	<polygon fill="none" stroke="#333333" stroke-width="5" stroke-linecap="square" stroke-miterlimit="10" points="115.889,291 
		178.444,291 157.666,293.973 115.889,291 	"/>
	<polygon fill-rule="evenodd" clip-rule="evenodd" fill="#333333" points="136.667,293.973 157.666,293.973 157.666,293.973 	"/>
	
		<rect x="136.667" y="293.973" fill="none" stroke="#333333" stroke-width="5" stroke-linecap="square" stroke-miterlimit="10" width="21" height="0"/>
</g>
</svg>
